M48
; DRILL file {KiCad 6.0.10-86aedd382b~118~ubuntu20.04.1} date Mi 02 Aug 2023 00:09:27
; FORMAT={-:-/ absolute / metric / decimal}
; #@! TF.CreationDate,2023-08-02T00:09:27+02:00
; #@! TF.GenerationSoftware,Kicad,Pcbnew,6.0.10-86aedd382b~118~ubuntu20.04.1
; #@! TF.FileFunction,Plated,1,2,PTH
FMAT,2
METRIC
; #@! TA.AperFunction,Plated,PTH,ComponentDrill
T1C0.300
; #@! TA.AperFunction,Plated,PTH,ViaDrill
T2C0.600
; #@! TA.AperFunction,Plated,PTH,ComponentDrill
T3C1.000
%
G90
G05
T1
X133.571Y-89.917
X133.571Y-90.806
X133.571Y-97.918
X133.571Y-98.807
X134.671Y-89.917
X134.671Y-90.806
X134.671Y-97.918
X134.671Y-98.807
X135.771Y-89.917
X135.771Y-90.806
X135.771Y-97.918
X135.771Y-98.807
T2
X128.778Y-91.872
X142.392Y-97.917
X143.459Y-101.702
X144.374Y-99.924
X146.149Y-99.895
X147.777Y-100.889
X149.8Y-102.708
X150.45Y-98.126
X151.765Y-90.367
X153.441Y-94.082
X154.829Y-92.766
X154.94Y-102.667
X157.48Y-97.848
X157.48Y-102.667
X158.775Y-90.367
X162.51Y-102.641
X162.728Y-95.448
X165.811Y-90.373
X169.342Y-102.514
X169.799Y-91.034
X172.593Y-90.703
X173.025Y-102.489
T3
X142.18Y-105.225
X142.18Y-107.765
X144.72Y-105.225
X144.72Y-107.765
X147.26Y-105.225
X147.26Y-107.765
X149.8Y-105.225
X149.8Y-107.765
X153.69Y-105.21
X153.69Y-107.75
X156.23Y-105.21
X156.23Y-107.75
X158.77Y-105.21
X158.77Y-107.75
X161.31Y-105.21
X161.31Y-107.75
X163.85Y-105.21
X163.85Y-107.75
X166.39Y-105.21
X166.39Y-107.75
X168.072Y-94.691
X168.93Y-105.21
X168.93Y-107.75
X170.612Y-94.691
X171.47Y-105.21
X171.47Y-107.75
X173.152Y-94.691
X174.01Y-105.21
X174.01Y-107.75
X176.428Y-89.433
X176.55Y-105.21
X176.55Y-107.75
X178.968Y-89.433
T0
M30
