%TF.GenerationSoftware,KiCad,Pcbnew,6.0.10-86aedd382b~118~ubuntu20.04.1*%
%TF.CreationDate,2023-08-02T00:09:12+02:00*%
%TF.ProjectId,power_board,706f7765-725f-4626-9f61-72642e6b6963,rev?*%
%TF.SameCoordinates,Original*%
%TF.FileFunction,Soldermask,Bot*%
%TF.FilePolarity,Negative*%
%FSLAX46Y46*%
G04 Gerber Fmt 4.6, Leading zero omitted, Abs format (unit mm)*
G04 Created by KiCad (PCBNEW 6.0.10-86aedd382b~118~ubuntu20.04.1) date 2023-08-02 00:09:12*
%MOMM*%
%LPD*%
G01*
G04 APERTURE LIST*
G04 Aperture macros list*
%AMRoundRect*
0 Rectangle with rounded corners*
0 $1 Rounding radius*
0 $2 $3 $4 $5 $6 $7 $8 $9 X,Y pos of 4 corners*
0 Add a 4 corners polygon primitive as box body*
4,1,4,$2,$3,$4,$5,$6,$7,$8,$9,$2,$3,0*
0 Add four circle primitives for the rounded corners*
1,1,$1+$1,$2,$3*
1,1,$1+$1,$4,$5*
1,1,$1+$1,$6,$7*
1,1,$1+$1,$8,$9*
0 Add four rect primitives between the rounded corners*
20,1,$1+$1,$2,$3,$4,$5,0*
20,1,$1+$1,$4,$5,$6,$7,0*
20,1,$1+$1,$6,$7,$8,$9,0*
20,1,$1+$1,$8,$9,$2,$3,0*%
G04 Aperture macros list end*
%ADD10C,2.700000*%
%ADD11R,1.500000X2.300000*%
%ADD12O,1.500000X2.300000*%
%ADD13R,1.700000X1.700000*%
%ADD14O,1.700000X1.700000*%
%ADD15RoundRect,0.250000X0.337500X0.475000X-0.337500X0.475000X-0.337500X-0.475000X0.337500X-0.475000X0*%
%ADD16RoundRect,0.250000X-0.337500X-0.475000X0.337500X-0.475000X0.337500X0.475000X-0.337500X0.475000X0*%
G04 APERTURE END LIST*
D10*
%TO.C,REF\u002A\u002A*%
X181500000Y-106500000D03*
%TD*%
D11*
%TO.C,U1*%
X173151800Y-94691200D03*
D12*
X170611800Y-94691200D03*
X168071800Y-94691200D03*
%TD*%
D13*
%TO.C,J3*%
X149800000Y-105225000D03*
D14*
X149800000Y-107765000D03*
X147260000Y-105225000D03*
X147260000Y-107765000D03*
X144720000Y-105225000D03*
X144720000Y-107765000D03*
X142180000Y-105225000D03*
X142180000Y-107765000D03*
%TD*%
D13*
%TO.C,J8*%
X178968400Y-89433400D03*
D14*
X176428400Y-89433400D03*
%TD*%
D10*
%TO.C,REF\u002A\u002A*%
X181500000Y-83500000D03*
%TD*%
%TO.C,REF\u002A\u002A*%
X123500000Y-106500000D03*
%TD*%
%TO.C,REF\u002A\u002A*%
X123500000Y-83500000D03*
%TD*%
D13*
%TO.C,J7*%
X163850000Y-105210000D03*
D14*
X163850000Y-107750000D03*
X161310000Y-105210000D03*
X161310000Y-107750000D03*
X158770000Y-105210000D03*
X158770000Y-107750000D03*
X156230000Y-105210000D03*
X156230000Y-107750000D03*
X153690000Y-105210000D03*
X153690000Y-107750000D03*
%TD*%
D15*
%TO.C,C4*%
X173151800Y-97586800D03*
X171076800Y-97586800D03*
%TD*%
D16*
%TO.C,C3*%
X166094500Y-97536000D03*
X168169500Y-97536000D03*
%TD*%
D13*
%TO.C,J2*%
X176550000Y-105210000D03*
D14*
X176550000Y-107750000D03*
X174010000Y-105210000D03*
X174010000Y-107750000D03*
X171470000Y-105210000D03*
X171470000Y-107750000D03*
X168930000Y-105210000D03*
X168930000Y-107750000D03*
X166390000Y-105210000D03*
X166390000Y-107750000D03*
%TD*%
M02*
