%TF.GenerationSoftware,KiCad,Pcbnew,6.0.10-86aedd382b~118~ubuntu20.04.1*%
%TF.CreationDate,2023-08-02T00:09:12+02:00*%
%TF.ProjectId,power_board,706f7765-725f-4626-9f61-72642e6b6963,rev?*%
%TF.SameCoordinates,Original*%
%TF.FileFunction,Copper,L2,Bot*%
%TF.FilePolarity,Positive*%
%FSLAX46Y46*%
G04 Gerber Fmt 4.6, Leading zero omitted, Abs format (unit mm)*
G04 Created by KiCad (PCBNEW 6.0.10-86aedd382b~118~ubuntu20.04.1) date 2023-08-02 00:09:12*
%MOMM*%
%LPD*%
G01*
G04 APERTURE LIST*
G04 Aperture macros list*
%AMRoundRect*
0 Rectangle with rounded corners*
0 $1 Rounding radius*
0 $2 $3 $4 $5 $6 $7 $8 $9 X,Y pos of 4 corners*
0 Add a 4 corners polygon primitive as box body*
4,1,4,$2,$3,$4,$5,$6,$7,$8,$9,$2,$3,0*
0 Add four circle primitives for the rounded corners*
1,1,$1+$1,$2,$3*
1,1,$1+$1,$4,$5*
1,1,$1+$1,$6,$7*
1,1,$1+$1,$8,$9*
0 Add four rect primitives between the rounded corners*
20,1,$1+$1,$2,$3,$4,$5,0*
20,1,$1+$1,$4,$5,$6,$7,0*
20,1,$1+$1,$6,$7,$8,$9,0*
20,1,$1+$1,$8,$9,$2,$3,0*%
G04 Aperture macros list end*
%TA.AperFunction,ComponentPad*%
%ADD10C,0.600000*%
%TD*%
%TA.AperFunction,SMDPad,CuDef*%
%ADD11R,3.400000X10.160000*%
%TD*%
%TA.AperFunction,ComponentPad*%
%ADD12R,1.500000X2.300000*%
%TD*%
%TA.AperFunction,ComponentPad*%
%ADD13O,1.500000X2.300000*%
%TD*%
%TA.AperFunction,ComponentPad*%
%ADD14R,1.700000X1.700000*%
%TD*%
%TA.AperFunction,ComponentPad*%
%ADD15O,1.700000X1.700000*%
%TD*%
%TA.AperFunction,SMDPad,CuDef*%
%ADD16RoundRect,0.250000X0.337500X0.475000X-0.337500X0.475000X-0.337500X-0.475000X0.337500X-0.475000X0*%
%TD*%
%TA.AperFunction,SMDPad,CuDef*%
%ADD17RoundRect,0.250000X-0.337500X-0.475000X0.337500X-0.475000X0.337500X0.475000X-0.337500X0.475000X0*%
%TD*%
%TA.AperFunction,ViaPad*%
%ADD18C,1.500000*%
%TD*%
%TA.AperFunction,Conductor*%
%ADD19C,0.500000*%
%TD*%
%TA.AperFunction,Conductor*%
%ADD20C,1.000000*%
%TD*%
%TA.AperFunction,Conductor*%
%ADD21C,0.300000*%
%TD*%
G04 APERTURE END LIST*
D10*
%TO.P,U2,17,GND(PPAD)*%
%TO.N,GND*%
X135770800Y-97917800D03*
X134670800Y-90805800D03*
X133570800Y-97917800D03*
X135770800Y-90805800D03*
X135770800Y-89916800D03*
X135770800Y-98806800D03*
D11*
X134670800Y-94361800D03*
D10*
X133570800Y-98806800D03*
X133570800Y-89916800D03*
X134670800Y-98806800D03*
X134670800Y-97917800D03*
X133570800Y-90805800D03*
X134670800Y-89916800D03*
%TD*%
D12*
%TO.P,U1,1,IN*%
%TO.N,+12V*%
X173151800Y-94691200D03*
D13*
%TO.P,U1,2,GND*%
%TO.N,GND*%
X170611800Y-94691200D03*
%TO.P,U1,3,OUT*%
%TO.N,+5V*%
X168071800Y-94691200D03*
%TD*%
D14*
%TO.P,J3,1,Pin_1*%
%TO.N,+12V*%
X149800000Y-105225000D03*
D15*
%TO.P,J3,2,Pin_2*%
%TO.N,/Batt+*%
X149800000Y-107765000D03*
%TO.P,J3,3,Pin_3*%
%TO.N,/Network-LED*%
X147260000Y-105225000D03*
%TO.P,J3,4,Pin_4*%
%TO.N,GND*%
X147260000Y-107765000D03*
%TO.P,J3,5,Pin_5*%
%TO.N,/GPS-LED*%
X144720000Y-105225000D03*
%TO.P,J3,6,Pin_6*%
%TO.N,/BOOT-LED*%
X144720000Y-107765000D03*
%TO.P,J3,7,Pin_7*%
%TO.N,+5V*%
X142180000Y-105225000D03*
%TO.P,J3,8,Pin_8*%
%TO.N,/Button-Pin*%
X142180000Y-107765000D03*
%TD*%
D14*
%TO.P,J8,1,Pin_1*%
%TO.N,GND*%
X178968400Y-89433400D03*
D15*
%TO.P,J8,2,Pin_2*%
X176428400Y-89433400D03*
%TD*%
D14*
%TO.P,J7,1,Pin_1*%
%TO.N,/GPS-LED*%
X163850000Y-105210000D03*
D15*
%TO.P,J7,2,Pin_2*%
%TO.N,/PHASE*%
X163850000Y-107750000D03*
%TO.P,J7,3,Pin_3*%
%TO.N,/BOOT-LED*%
X161310000Y-105210000D03*
%TO.P,J7,4,Pin_4*%
%TO.N,GND*%
X161310000Y-107750000D03*
%TO.P,J7,5,Pin_5*%
%TO.N,/Network-LED*%
X158770000Y-105210000D03*
%TO.P,J7,6,Pin_6*%
%TO.N,/nFault*%
X158770000Y-107750000D03*
%TO.P,J7,7,Pin_7*%
%TO.N,unconnected-(J7-Pad7)*%
X156230000Y-105210000D03*
%TO.P,J7,8,Pin_8*%
%TO.N,/ENABLE*%
X156230000Y-107750000D03*
%TO.P,J7,9,Pin_9*%
%TO.N,/Button-Pin*%
X153690000Y-105210000D03*
%TO.P,J7,10,Pin_10*%
%TO.N,GND*%
X153690000Y-107750000D03*
%TD*%
D16*
%TO.P,C4,1*%
%TO.N,+12V*%
X173151800Y-97586800D03*
%TO.P,C4,2*%
%TO.N,GND*%
X171076800Y-97586800D03*
%TD*%
D17*
%TO.P,C3,1*%
%TO.N,+5V*%
X166094500Y-97536000D03*
%TO.P,C3,2*%
%TO.N,GND*%
X168169500Y-97536000D03*
%TD*%
D14*
%TO.P,J2,1,Pin_1*%
%TO.N,unconnected-(J2-Pad1)*%
X176550000Y-105210000D03*
D15*
%TO.P,J2,2,Pin_2*%
%TO.N,+5V*%
X176550000Y-107750000D03*
%TO.P,J2,3,Pin_3*%
%TO.N,unconnected-(J2-Pad3)*%
X174010000Y-105210000D03*
%TO.P,J2,4,Pin_4*%
%TO.N,+5V*%
X174010000Y-107750000D03*
%TO.P,J2,5,Pin_5*%
%TO.N,unconnected-(J2-Pad5)*%
X171470000Y-105210000D03*
%TO.P,J2,6,Pin_6*%
%TO.N,GND*%
X171470000Y-107750000D03*
%TO.P,J2,7,Pin_7*%
%TO.N,unconnected-(J2-Pad7)*%
X168930000Y-105210000D03*
%TO.P,J2,8,Pin_8*%
%TO.N,unconnected-(J2-Pad8)*%
X168930000Y-107750000D03*
%TO.P,J2,9,Pin_9*%
%TO.N,GND*%
X166390000Y-105210000D03*
%TO.P,J2,10,Pin_10*%
%TO.N,unconnected-(J2-Pad10)*%
X166390000Y-107750000D03*
%TD*%
D18*
%TO.N,+12V*%
X150449900Y-98125900D03*
X173024800Y-102489000D03*
X149800000Y-102708400D03*
%TO.N,/Batt+*%
X153441400Y-94081600D03*
%TO.N,GND*%
X169341800Y-102514400D03*
X172593000Y-90703400D03*
%TO.N,+5V*%
X142392400Y-97917000D03*
X169799000Y-91033600D03*
%TO.N,/Network-LED*%
X147777200Y-100888800D03*
%TO.N,/GPS-LED*%
X144373600Y-99923600D03*
%TO.N,/BOOT-LED*%
X146148875Y-99895475D03*
%TO.N,/Button-Pin*%
X143459200Y-101701600D03*
%TO.N,Net-(J4-Pad2)*%
X165811200Y-90373200D03*
X158775400Y-90367500D03*
X151765000Y-90367500D03*
X128778000Y-91871800D03*
%TO.N,/PHASE*%
X162510000Y-102640600D03*
X162727825Y-95448300D03*
%TO.N,/nFault*%
X157480000Y-97847800D03*
X157480000Y-102666800D03*
%TO.N,/ENABLE*%
X154940000Y-102666800D03*
X154829000Y-92766500D03*
%TD*%
D19*
%TO.N,+12V*%
X173024800Y-97713800D02*
X173151800Y-97586800D01*
X149885400Y-98690400D02*
X149885400Y-102623000D01*
X149885400Y-102623000D02*
X149800000Y-102708400D01*
X173024800Y-102489000D02*
X173024800Y-97713800D01*
X173151800Y-94691200D02*
X173151800Y-97586800D01*
X150449900Y-98125900D02*
X149885400Y-98690400D01*
X149800000Y-102708400D02*
X149800000Y-105225000D01*
%TO.N,/Batt+*%
X152882600Y-102743000D02*
X152171400Y-103454200D01*
X152171400Y-105943400D02*
X150349800Y-107765000D01*
X150349800Y-107765000D02*
X149800000Y-107765000D01*
D20*
X153441400Y-102184200D02*
X152882600Y-102743000D01*
D19*
X152171400Y-103454200D02*
X152171400Y-105943400D01*
D20*
X153441400Y-94081600D02*
X153441400Y-102184200D01*
%TO.N,GND*%
X166748800Y-91823200D02*
X156847200Y-91823200D01*
X170611800Y-92684600D02*
X170611800Y-94691200D01*
D19*
X134670800Y-103936800D02*
X134670800Y-94361800D01*
D20*
X169672000Y-95986600D02*
X170611800Y-95046800D01*
X150240200Y-94361800D02*
X134670800Y-94361800D01*
D19*
X169672000Y-97536000D02*
X169722800Y-97586800D01*
X140004800Y-109270800D02*
X134670800Y-103936800D01*
D20*
X170611800Y-95046800D02*
X170611800Y-94691200D01*
X176428400Y-89433400D02*
X178968400Y-89433400D01*
X172593000Y-90703400D02*
X173634400Y-90703400D01*
X172593000Y-90703400D02*
X171473200Y-89583600D01*
D19*
X168169500Y-97536000D02*
X169672000Y-97536000D01*
D20*
X156340500Y-91316500D02*
X153285500Y-91316500D01*
D19*
X147260000Y-107765000D02*
X145754200Y-109270800D01*
D20*
X174904400Y-89433400D02*
X176428400Y-89433400D01*
X173634400Y-90703400D02*
X174904400Y-89433400D01*
X169672000Y-97536000D02*
X169672000Y-95986600D01*
X168988400Y-89583600D02*
X166748800Y-91823200D01*
X172593000Y-90703400D02*
X170611800Y-92684600D01*
X156847200Y-91823200D02*
X156340500Y-91316500D01*
D19*
X145754200Y-109270800D02*
X140004800Y-109270800D01*
D20*
X153285500Y-91316500D02*
X150240200Y-94361800D01*
X169672000Y-102184200D02*
X169341800Y-102514400D01*
D19*
X169722800Y-97586800D02*
X171076800Y-97586800D01*
D20*
X171473200Y-89583600D02*
X168988400Y-89583600D01*
X169672000Y-97536000D02*
X169672000Y-102184200D01*
%TO.N,+5V*%
X168071800Y-92760800D02*
X168071800Y-94691200D01*
D19*
X142392400Y-97917000D02*
X142180000Y-98129400D01*
X166094500Y-97536000D02*
X166094500Y-96668500D01*
X142180000Y-98129400D02*
X142180000Y-105225000D01*
X166094500Y-96668500D02*
X168071800Y-94691200D01*
D20*
X169799000Y-91033600D02*
X168071800Y-92760800D01*
D19*
%TO.N,/Network-LED*%
X147260000Y-101406000D02*
X147260000Y-105225000D01*
X147777200Y-100888800D02*
X147260000Y-101406000D01*
%TO.N,/GPS-LED*%
X144703800Y-100253800D02*
X144703800Y-105208800D01*
X144373600Y-99923600D02*
X144703800Y-100253800D01*
X144703800Y-105208800D02*
X144720000Y-105225000D01*
D21*
%TO.N,/BOOT-LED*%
X146126200Y-103886000D02*
X145973800Y-104038400D01*
D19*
X146148875Y-99895475D02*
X146148875Y-103863325D01*
D21*
X145973800Y-106511200D02*
X144720000Y-107765000D01*
D19*
X146148875Y-103863325D02*
X146126200Y-103886000D01*
D21*
X145973800Y-104038400D02*
X145973800Y-106511200D01*
%TO.N,/Button-Pin*%
X143459200Y-106485800D02*
X142180000Y-107765000D01*
X143459200Y-101701600D02*
X143459200Y-106485800D01*
D19*
%TO.N,Net-(J4-Pad2)*%
X151765000Y-90367500D02*
X152216500Y-89916000D01*
X165811200Y-90373200D02*
X158781100Y-90373200D01*
X158323900Y-89916000D02*
X158775400Y-90367500D01*
X146812000Y-88138000D02*
X149041500Y-90367500D01*
X158781100Y-90373200D02*
X158775400Y-90367500D01*
X132511800Y-88138000D02*
X146812000Y-88138000D01*
X149041500Y-90367500D02*
X151765000Y-90367500D01*
X152216500Y-89916000D02*
X158323900Y-89916000D01*
X128778000Y-91871800D02*
X132511800Y-88138000D01*
%TO.N,/PHASE*%
X162560000Y-95616125D02*
X162727825Y-95448300D01*
X162560000Y-102590600D02*
X162560000Y-95616125D01*
X162510000Y-102640600D02*
X162560000Y-102590600D01*
%TO.N,/nFault*%
X157480000Y-97847800D02*
X157480000Y-102666800D01*
%TO.N,/ENABLE*%
X154940000Y-92877500D02*
X154829000Y-92766500D01*
X154940000Y-102666800D02*
X154940000Y-92877500D01*
%TD*%
M02*
