%TF.GenerationSoftware,KiCad,Pcbnew,6.0.10-86aedd382b~118~ubuntu20.04.1*%
%TF.CreationDate,2023-08-02T00:09:11+02:00*%
%TF.ProjectId,power_board,706f7765-725f-4626-9f61-72642e6b6963,rev?*%
%TF.SameCoordinates,Original*%
%TF.FileFunction,Copper,L1,Top*%
%TF.FilePolarity,Positive*%
%FSLAX46Y46*%
G04 Gerber Fmt 4.6, Leading zero omitted, Abs format (unit mm)*
G04 Created by KiCad (PCBNEW 6.0.10-86aedd382b~118~ubuntu20.04.1) date 2023-08-02 00:09:11*
%MOMM*%
%LPD*%
G01*
G04 APERTURE LIST*
G04 Aperture macros list*
%AMRoundRect*
0 Rectangle with rounded corners*
0 $1 Rounding radius*
0 $2 $3 $4 $5 $6 $7 $8 $9 X,Y pos of 4 corners*
0 Add a 4 corners polygon primitive as box body*
4,1,4,$2,$3,$4,$5,$6,$7,$8,$9,$2,$3,0*
0 Add four circle primitives for the rounded corners*
1,1,$1+$1,$2,$3*
1,1,$1+$1,$4,$5*
1,1,$1+$1,$6,$7*
1,1,$1+$1,$8,$9*
0 Add four rect primitives between the rounded corners*
20,1,$1+$1,$2,$3,$4,$5,0*
20,1,$1+$1,$4,$5,$6,$7,0*
20,1,$1+$1,$6,$7,$8,$9,0*
20,1,$1+$1,$8,$9,$2,$3,0*%
%AMOutline5P*
0 Free polygon, 5 corners , with rotation*
0 The origin of the aperture is its center*
0 number of corners: always 5*
0 $1 to $10 corner X, Y*
0 $11 Rotation angle, in degrees counterclockwise*
0 create outline with 5 corners*
4,1,5,$1,$2,$3,$4,$5,$6,$7,$8,$9,$10,$1,$2,$11*%
%AMOutline6P*
0 Free polygon, 6 corners , with rotation*
0 The origin of the aperture is its center*
0 number of corners: always 6*
0 $1 to $12 corner X, Y*
0 $13 Rotation angle, in degrees counterclockwise*
0 create outline with 6 corners*
4,1,6,$1,$2,$3,$4,$5,$6,$7,$8,$9,$10,$11,$12,$1,$2,$13*%
%AMOutline7P*
0 Free polygon, 7 corners , with rotation*
0 The origin of the aperture is its center*
0 number of corners: always 7*
0 $1 to $14 corner X, Y*
0 $15 Rotation angle, in degrees counterclockwise*
0 create outline with 7 corners*
4,1,7,$1,$2,$3,$4,$5,$6,$7,$8,$9,$10,$11,$12,$13,$14,$1,$2,$15*%
%AMOutline8P*
0 Free polygon, 8 corners , with rotation*
0 The origin of the aperture is its center*
0 number of corners: always 8*
0 $1 to $16 corner X, Y*
0 $17 Rotation angle, in degrees counterclockwise*
0 create outline with 8 corners*
4,1,8,$1,$2,$3,$4,$5,$6,$7,$8,$9,$10,$11,$12,$13,$14,$15,$16,$1,$2,$17*%
G04 Aperture macros list end*
%TA.AperFunction,SMDPad,CuDef*%
%ADD10RoundRect,0.250000X-0.475000X0.337500X-0.475000X-0.337500X0.475000X-0.337500X0.475000X0.337500X0*%
%TD*%
%TA.AperFunction,SMDPad,CuDef*%
%ADD11RoundRect,0.250000X-0.350000X-0.450000X0.350000X-0.450000X0.350000X0.450000X-0.350000X0.450000X0*%
%TD*%
%TA.AperFunction,SMDPad,CuDef*%
%ADD12RoundRect,0.381000X0.381000X-1.397000X0.381000X1.397000X-0.381000X1.397000X-0.381000X-1.397000X0*%
%TD*%
%TA.AperFunction,SMDPad,CuDef*%
%ADD13RoundRect,0.250000X0.450000X-0.350000X0.450000X0.350000X-0.450000X0.350000X-0.450000X-0.350000X0*%
%TD*%
%TA.AperFunction,SMDPad,CuDef*%
%ADD14RoundRect,0.250000X-0.337500X-0.475000X0.337500X-0.475000X0.337500X0.475000X-0.337500X0.475000X0*%
%TD*%
%TA.AperFunction,SMDPad,CuDef*%
%ADD15RoundRect,0.250000X-0.450000X0.350000X-0.450000X-0.350000X0.450000X-0.350000X0.450000X0.350000X0*%
%TD*%
%TA.AperFunction,SMDPad,CuDef*%
%ADD16Outline5P,-0.525000X0.000000X-0.300000X0.225000X0.525000X0.225000X0.525000X-0.225000X-0.525000X-0.225000X180.000000*%
%TD*%
%TA.AperFunction,SMDPad,CuDef*%
%ADD17R,1.050000X0.450000*%
%TD*%
%TA.AperFunction,ComponentPad*%
%ADD18C,0.600000*%
%TD*%
%TA.AperFunction,SMDPad,CuDef*%
%ADD19R,3.400000X10.160000*%
%TD*%
%TA.AperFunction,ComponentPad*%
%ADD20R,1.500000X2.300000*%
%TD*%
%TA.AperFunction,ComponentPad*%
%ADD21O,1.500000X2.300000*%
%TD*%
%TA.AperFunction,ComponentPad*%
%ADD22R,1.700000X1.700000*%
%TD*%
%TA.AperFunction,ComponentPad*%
%ADD23O,1.700000X1.700000*%
%TD*%
%TA.AperFunction,SMDPad,CuDef*%
%ADD24RoundRect,0.250000X0.350000X0.450000X-0.350000X0.450000X-0.350000X-0.450000X0.350000X-0.450000X0*%
%TD*%
%TA.AperFunction,ViaPad*%
%ADD25C,1.500000*%
%TD*%
%TA.AperFunction,Conductor*%
%ADD26C,0.300000*%
%TD*%
%TA.AperFunction,Conductor*%
%ADD27C,0.500000*%
%TD*%
%TA.AperFunction,Conductor*%
%ADD28C,1.000000*%
%TD*%
G04 APERTURE END LIST*
D10*
%TO.P,C2,1*%
%TO.N,+12V*%
X125984000Y-93272700D03*
%TO.P,C2,2*%
%TO.N,Net-(U2-Pad14)*%
X125984000Y-95347700D03*
%TD*%
D11*
%TO.P,R5,1*%
%TO.N,/nFault*%
X137684000Y-98552000D03*
%TO.P,R5,2*%
%TO.N,+5V*%
X139684000Y-98552000D03*
%TD*%
D12*
%TO.P,J5,1,Pin_1*%
%TO.N,Net-(J4-Pad1)*%
X156230000Y-87778000D03*
%TO.P,J5,2,Pin_2*%
%TO.N,Net-(J4-Pad2)*%
X158770000Y-87778000D03*
%TD*%
D13*
%TO.P,R1,1*%
%TO.N,Net-(R1-Pad1)*%
X139242800Y-96647800D03*
%TO.P,R1,2*%
%TO.N,GND*%
X139242800Y-94647800D03*
%TD*%
D14*
%TO.P,C8,1*%
%TO.N,+12V*%
X127740500Y-103632000D03*
%TO.P,C8,2*%
%TO.N,GND*%
X129815500Y-103632000D03*
%TD*%
D15*
%TO.P,R4,1*%
%TO.N,Net-(R4-Pad1)*%
X141274800Y-94647800D03*
%TO.P,R4,2*%
%TO.N,+5V*%
X141274800Y-96647800D03*
%TD*%
D12*
%TO.P,J4,1,Pin_1*%
%TO.N,Net-(J4-Pad1)*%
X163230000Y-87778000D03*
%TO.P,J4,2,Pin_2*%
%TO.N,Net-(J4-Pad2)*%
X165770000Y-87778000D03*
%TD*%
%TO.P,J1,1,Pin_1*%
%TO.N,/Batt+*%
X170180000Y-87721500D03*
%TO.P,J1,2,Pin_2*%
%TO.N,GND*%
X172720000Y-87721500D03*
%TD*%
D15*
%TO.P,R2,1*%
%TO.N,Net-(R2-Pad1)*%
X131826000Y-98314000D03*
%TO.P,R2,2*%
%TO.N,GND*%
X131826000Y-100314000D03*
%TD*%
D14*
%TO.P,C5,1*%
%TO.N,+12V*%
X127762000Y-97536000D03*
%TO.P,C5,2*%
%TO.N,GND*%
X129837000Y-97536000D03*
%TD*%
%TO.P,C7,1*%
%TO.N,+12V*%
X127740500Y-101600000D03*
%TO.P,C7,2*%
%TO.N,GND*%
X129815500Y-101600000D03*
%TD*%
D16*
%TO.P,U2,1,~{FAULT}*%
%TO.N,/nFault*%
X137445800Y-96636800D03*
D17*
%TO.P,U2,2,MODE1*%
%TO.N,Net-(R1-Pad1)*%
X137445800Y-95986800D03*
%TO.P,U2,3,PHASE*%
%TO.N,/PHASE*%
X137445800Y-95336800D03*
%TO.P,U2,4,GND*%
%TO.N,GND*%
X137445800Y-94686800D03*
%TO.P,U2,5,~{SLEEP}*%
%TO.N,Net-(R4-Pad1)*%
X137445800Y-94036800D03*
%TO.P,U2,6,ENABLE*%
%TO.N,/ENABLE*%
X137445800Y-93386800D03*
%TO.P,U2,7,OUT+*%
%TO.N,Net-(J4-Pad1)*%
X137445800Y-92736800D03*
%TO.P,U2,8,SENSE*%
%TO.N,Net-(R6-Pad1)*%
X137445800Y-92086800D03*
%TO.P,U2,9,VBB*%
%TO.N,+12V*%
X131895800Y-92086800D03*
%TO.P,U2,10,OUT-*%
%TO.N,Net-(J4-Pad2)*%
X131895800Y-92736800D03*
%TO.P,U2,11,CP1*%
%TO.N,Net-(C1-Pad1)*%
X131895800Y-93386800D03*
%TO.P,U2,12,CP2*%
%TO.N,Net-(C1-Pad2)*%
X131895800Y-94036800D03*
%TO.P,U2,13,GND*%
%TO.N,GND*%
X131895800Y-94686800D03*
%TO.P,U2,14,VCP*%
%TO.N,Net-(U2-Pad14)*%
X131895800Y-95336800D03*
%TO.P,U2,15,VPROPI*%
%TO.N,unconnected-(U2-Pad15)*%
X131895800Y-95986800D03*
%TO.P,U2,16,MODE2*%
%TO.N,Net-(R2-Pad1)*%
X131895800Y-96636800D03*
D18*
%TO.P,U2,17,GND(PPAD)*%
%TO.N,GND*%
X135770800Y-97917800D03*
X134670800Y-90805800D03*
X133570800Y-97917800D03*
X135770800Y-90805800D03*
X135770800Y-89916800D03*
X135770800Y-98806800D03*
X133570800Y-98806800D03*
X133570800Y-89916800D03*
X134670800Y-98806800D03*
D19*
X134670800Y-94361800D03*
D18*
X134670800Y-97917800D03*
X133570800Y-90805800D03*
X134670800Y-89916800D03*
%TD*%
D20*
%TO.P,U1,1,IN*%
%TO.N,+12V*%
X173151800Y-94691200D03*
D21*
%TO.P,U1,2,GND*%
%TO.N,GND*%
X170611800Y-94691200D03*
%TO.P,U1,3,OUT*%
%TO.N,+5V*%
X168071800Y-94691200D03*
%TD*%
D13*
%TO.P,R3,1*%
%TO.N,/ENABLE*%
X139852400Y-92567000D03*
%TO.P,R3,2*%
%TO.N,GND*%
X139852400Y-90567000D03*
%TD*%
D14*
%TO.P,C1,1*%
%TO.N,Net-(C1-Pad1)*%
X128100000Y-94335600D03*
%TO.P,C1,2*%
%TO.N,Net-(C1-Pad2)*%
X130175000Y-94335600D03*
%TD*%
D22*
%TO.P,J3,1,Pin_1*%
%TO.N,+12V*%
X149800000Y-105225000D03*
D23*
%TO.P,J3,2,Pin_2*%
%TO.N,/Batt+*%
X149800000Y-107765000D03*
%TO.P,J3,3,Pin_3*%
%TO.N,/Network-LED*%
X147260000Y-105225000D03*
%TO.P,J3,4,Pin_4*%
%TO.N,GND*%
X147260000Y-107765000D03*
%TO.P,J3,5,Pin_5*%
%TO.N,/GPS-LED*%
X144720000Y-105225000D03*
%TO.P,J3,6,Pin_6*%
%TO.N,/BOOT-LED*%
X144720000Y-107765000D03*
%TO.P,J3,7,Pin_7*%
%TO.N,+5V*%
X142180000Y-105225000D03*
%TO.P,J3,8,Pin_8*%
%TO.N,/Button-Pin*%
X142180000Y-107765000D03*
%TD*%
D14*
%TO.P,C6,1*%
%TO.N,+12V*%
X127762000Y-99530000D03*
%TO.P,C6,2*%
%TO.N,GND*%
X129837000Y-99530000D03*
%TD*%
D22*
%TO.P,J8,1,Pin_1*%
%TO.N,GND*%
X178968400Y-89433400D03*
D23*
%TO.P,J8,2,Pin_2*%
X176428400Y-89433400D03*
%TD*%
D13*
%TO.P,R6,1*%
%TO.N,Net-(R6-Pad1)*%
X137414000Y-90662000D03*
%TO.P,R6,2*%
%TO.N,Net-(R6-Pad2)*%
X137414000Y-88662000D03*
%TD*%
D24*
%TO.P,R7,1*%
%TO.N,Net-(R6-Pad2)*%
X135620000Y-88265000D03*
%TO.P,R7,2*%
%TO.N,GND*%
X133620000Y-88265000D03*
%TD*%
D12*
%TO.P,J6,1,Pin_1*%
%TO.N,Net-(J4-Pad1)*%
X149230000Y-87778000D03*
%TO.P,J6,2,Pin_2*%
%TO.N,Net-(J4-Pad2)*%
X151770000Y-87778000D03*
%TD*%
D22*
%TO.P,J7,1,Pin_1*%
%TO.N,/GPS-LED*%
X163850000Y-105210000D03*
D23*
%TO.P,J7,2,Pin_2*%
%TO.N,/PHASE*%
X163850000Y-107750000D03*
%TO.P,J7,3,Pin_3*%
%TO.N,/BOOT-LED*%
X161310000Y-105210000D03*
%TO.P,J7,4,Pin_4*%
%TO.N,GND*%
X161310000Y-107750000D03*
%TO.P,J7,5,Pin_5*%
%TO.N,/Network-LED*%
X158770000Y-105210000D03*
%TO.P,J7,6,Pin_6*%
%TO.N,/nFault*%
X158770000Y-107750000D03*
%TO.P,J7,7,Pin_7*%
%TO.N,unconnected-(J7-Pad7)*%
X156230000Y-105210000D03*
%TO.P,J7,8,Pin_8*%
%TO.N,/ENABLE*%
X156230000Y-107750000D03*
%TO.P,J7,9,Pin_9*%
%TO.N,/Button-Pin*%
X153690000Y-105210000D03*
%TO.P,J7,10,Pin_10*%
%TO.N,GND*%
X153690000Y-107750000D03*
%TD*%
D22*
%TO.P,J2,1,Pin_1*%
%TO.N,unconnected-(J2-Pad1)*%
X176550000Y-105210000D03*
D23*
%TO.P,J2,2,Pin_2*%
%TO.N,+5V*%
X176550000Y-107750000D03*
%TO.P,J2,3,Pin_3*%
%TO.N,unconnected-(J2-Pad3)*%
X174010000Y-105210000D03*
%TO.P,J2,4,Pin_4*%
%TO.N,+5V*%
X174010000Y-107750000D03*
%TO.P,J2,5,Pin_5*%
%TO.N,unconnected-(J2-Pad5)*%
X171470000Y-105210000D03*
%TO.P,J2,6,Pin_6*%
%TO.N,GND*%
X171470000Y-107750000D03*
%TO.P,J2,7,Pin_7*%
%TO.N,unconnected-(J2-Pad7)*%
X168930000Y-105210000D03*
%TO.P,J2,8,Pin_8*%
%TO.N,unconnected-(J2-Pad8)*%
X168930000Y-107750000D03*
%TO.P,J2,9,Pin_9*%
%TO.N,GND*%
X166390000Y-105210000D03*
%TO.P,J2,10,Pin_10*%
%TO.N,unconnected-(J2-Pad10)*%
X166390000Y-107750000D03*
%TD*%
D25*
%TO.N,+12V*%
X150449900Y-98125900D03*
X173024800Y-102489000D03*
X149800000Y-102708400D03*
%TO.N,/Batt+*%
X153441400Y-94081600D03*
%TO.N,GND*%
X169341800Y-102514400D03*
X172593000Y-90703400D03*
%TO.N,+5V*%
X142392400Y-97917000D03*
X169799000Y-91033600D03*
%TO.N,/Network-LED*%
X147777200Y-100888800D03*
%TO.N,/GPS-LED*%
X144373600Y-99923600D03*
%TO.N,/BOOT-LED*%
X146148875Y-99895475D03*
%TO.N,/Button-Pin*%
X143459200Y-101701600D03*
%TO.N,Net-(J4-Pad2)*%
X165811200Y-90373200D03*
X158775400Y-90367500D03*
X151765000Y-90367500D03*
X128778000Y-91871800D03*
%TO.N,/PHASE*%
X162510000Y-102640600D03*
X162727825Y-95448300D03*
%TO.N,/nFault*%
X157480000Y-97847800D03*
X157480000Y-102666800D03*
%TO.N,/ENABLE*%
X154940000Y-102666800D03*
X154829000Y-92766500D03*
%TD*%
D26*
%TO.N,Net-(C1-Pad1)*%
X128100000Y-94335600D02*
X128100000Y-93438800D01*
X130919400Y-93065600D02*
X131240600Y-93386800D01*
X128473200Y-93065600D02*
X130919400Y-93065600D01*
X128100000Y-93438800D02*
X128473200Y-93065600D01*
X131240600Y-93386800D02*
X131895800Y-93386800D01*
%TO.N,Net-(C1-Pad2)*%
X131895800Y-94036800D02*
X130473800Y-94036800D01*
X130473800Y-94036800D02*
X130175000Y-94335600D01*
D27*
%TO.N,+12V*%
X169595800Y-99060000D02*
X173024800Y-102489000D01*
X130302000Y-105156000D02*
X132219729Y-103238271D01*
X125984000Y-93272700D02*
X124659300Y-93272700D01*
X127762000Y-103610500D02*
X127740500Y-103632000D01*
D26*
X125984000Y-92456000D02*
X127668200Y-90771800D01*
D27*
X149270129Y-103238271D02*
X149800000Y-102708400D01*
D26*
X125984000Y-93272700D02*
X125984000Y-92456000D01*
D27*
X127740500Y-103632000D02*
X127740500Y-104372500D01*
X127762000Y-97536000D02*
X127762000Y-103610500D01*
X125222000Y-97536000D02*
X127762000Y-97536000D01*
X152019000Y-99060000D02*
X169595800Y-99060000D01*
X150449900Y-98125900D02*
X151084900Y-98125900D01*
X123698000Y-94234000D02*
X123698000Y-96012000D01*
X151084900Y-98125900D02*
X152019000Y-99060000D01*
X128524000Y-105156000D02*
X130302000Y-105156000D01*
X127740500Y-104372500D02*
X128524000Y-105156000D01*
D26*
X127668200Y-90771800D02*
X131030800Y-90771800D01*
X131895800Y-91636800D02*
X131895800Y-92086800D01*
D27*
X132219729Y-103238271D02*
X149270129Y-103238271D01*
X123698000Y-96012000D02*
X125222000Y-97536000D01*
D26*
X131030800Y-90771800D02*
X131895800Y-91636800D01*
D27*
X124659300Y-93272700D02*
X123698000Y-94234000D01*
D28*
%TO.N,/Batt+*%
X161086800Y-94513400D02*
X162052000Y-93548200D01*
X162052000Y-93548200D02*
X164686810Y-93548200D01*
X164686810Y-93548200D02*
X170180000Y-88055010D01*
X153873200Y-94513400D02*
X161086800Y-94513400D01*
X153441400Y-94081600D02*
X153873200Y-94513400D01*
X170180000Y-88055010D02*
X170180000Y-87721500D01*
D27*
%TO.N,GND*%
X153690000Y-107750000D02*
X153690000Y-109214600D01*
X153690000Y-109149200D02*
X153690000Y-107750000D01*
X131810000Y-100330000D02*
X131826000Y-100314000D01*
D26*
X137445800Y-94686800D02*
X139203800Y-94686800D01*
D27*
X153771600Y-109296200D02*
X161208400Y-109296200D01*
D28*
X172745400Y-87746900D02*
X172720000Y-87721500D01*
D26*
X139203800Y-94686800D02*
X139242800Y-94647800D01*
X137445800Y-94686800D02*
X136095800Y-94686800D01*
D28*
X166390000Y-104439400D02*
X166390000Y-105210000D01*
D26*
X136025600Y-89662000D02*
X135770800Y-89916800D01*
D27*
X161264600Y-109296200D02*
X169923800Y-109296200D01*
D26*
X136095800Y-94686800D02*
X135770800Y-94361800D01*
D27*
X170196800Y-106476800D02*
X171470000Y-107750000D01*
D28*
X172593000Y-90703400D02*
X172745400Y-90551000D01*
X172745400Y-89738200D02*
X172745400Y-87746900D01*
X169341800Y-102514400D02*
X168315000Y-102514400D01*
D27*
X131826000Y-100314000D02*
X132063600Y-100314000D01*
X133570800Y-89916800D02*
X133570800Y-88171200D01*
D26*
X139852400Y-90567000D02*
X138947400Y-89662000D01*
X133245800Y-94686800D02*
X133570800Y-94361800D01*
D27*
X130637000Y-100330000D02*
X131810000Y-100330000D01*
D28*
X172745400Y-90551000D02*
X172745400Y-89738200D01*
D27*
X129837000Y-97536000D02*
X129837000Y-103610500D01*
X166390000Y-105210000D02*
X167656800Y-106476800D01*
D26*
X138947400Y-89662000D02*
X136025600Y-89662000D01*
D27*
X132063600Y-100314000D02*
X133570800Y-98806800D01*
X161208400Y-109296200D02*
X161310000Y-109194600D01*
X129837000Y-99530000D02*
X130637000Y-100330000D01*
X153690000Y-109214600D02*
X153771600Y-109296200D01*
D26*
X167656800Y-106476800D02*
X170196800Y-106476800D01*
D27*
X161310000Y-109194600D02*
X161310000Y-107750000D01*
X169923800Y-109296200D02*
X171470000Y-107750000D01*
D26*
X131895800Y-94686800D02*
X133245800Y-94686800D01*
D27*
X129837000Y-103610500D02*
X129815500Y-103632000D01*
D28*
X168315000Y-102514400D02*
X166390000Y-104439400D01*
%TO.N,+5V*%
X180213000Y-97790000D02*
X180213000Y-99644200D01*
D27*
X141274800Y-98094800D02*
X140689800Y-98679800D01*
X146938200Y-96647800D02*
X141274800Y-96647800D01*
X168935400Y-91033600D02*
X163320700Y-96648300D01*
D28*
X180213000Y-95885000D02*
X180213000Y-97790000D01*
D27*
X152452100Y-96648300D02*
X151587200Y-95783400D01*
X151587200Y-95783400D02*
X147802600Y-95783400D01*
D28*
X180213000Y-99644200D02*
X178282600Y-101574600D01*
D27*
X142392400Y-97917000D02*
X141452600Y-97917000D01*
X147802600Y-95783400D02*
X146938200Y-96647800D01*
X178282600Y-102387400D02*
X178206400Y-102463600D01*
X140689800Y-98679800D02*
X139811800Y-98679800D01*
X139811800Y-98679800D02*
X139684000Y-98552000D01*
D28*
X176733200Y-92405200D02*
X180213000Y-95885000D01*
D27*
X141274800Y-96647800D02*
X141274800Y-98094800D01*
X141452600Y-97917000D02*
X140689800Y-98679800D01*
X178206400Y-106680000D02*
X177136400Y-107750000D01*
X163320700Y-96648300D02*
X152452100Y-96648300D01*
D28*
X178282600Y-101574600D02*
X178282600Y-102387400D01*
X169799000Y-91033600D02*
X171170600Y-92405200D01*
D27*
X169799000Y-91033600D02*
X168935400Y-91033600D01*
X177136400Y-107750000D02*
X176550000Y-107750000D01*
D28*
X171170600Y-92405200D02*
X176733200Y-92405200D01*
D27*
X178206400Y-102463600D02*
X178206400Y-106680000D01*
D28*
X174010000Y-107750000D02*
X176550000Y-107750000D01*
D26*
%TO.N,/Network-LED*%
X152984200Y-101295200D02*
X152797400Y-101108400D01*
X147996800Y-101108400D02*
X147777200Y-100888800D01*
X157886400Y-101295200D02*
X152984200Y-101295200D01*
X158770000Y-102178800D02*
X157886400Y-101295200D01*
X158770000Y-105210000D02*
X158770000Y-102178800D01*
X148793200Y-101108400D02*
X147996800Y-101108400D01*
X152797400Y-101108400D02*
X148793200Y-101108400D01*
D27*
%TO.N,/GPS-LED*%
X161326457Y-99760000D02*
X163850000Y-102283543D01*
X163850000Y-102283543D02*
X163850000Y-105210000D01*
X150386943Y-99760000D02*
X161326457Y-99760000D01*
X144424400Y-99923600D02*
X145796000Y-98552000D01*
X144373600Y-99923600D02*
X144424400Y-99923600D01*
X145796000Y-98552000D02*
X149178943Y-98552000D01*
X149178943Y-98552000D02*
X150386943Y-99760000D01*
%TO.N,/BOOT-LED*%
X146148875Y-99895475D02*
X146476350Y-99568000D01*
X149939200Y-100460000D02*
X160048400Y-100460000D01*
X146476350Y-99568000D02*
X149047200Y-99568000D01*
X160048400Y-100460000D02*
X160909000Y-101320600D01*
X149047200Y-99568000D02*
X149939200Y-100460000D01*
X160909000Y-104809000D02*
X161310000Y-105210000D01*
X160909000Y-101320600D02*
X160909000Y-104809000D01*
D26*
%TO.N,/Button-Pin*%
X153690000Y-104287000D02*
X151011400Y-101608400D01*
X153690000Y-105210000D02*
X153690000Y-104287000D01*
X143814800Y-102057200D02*
X143459200Y-101701600D01*
X148988000Y-101608400D02*
X148539200Y-102057200D01*
X148539200Y-102057200D02*
X143814800Y-102057200D01*
X151011400Y-101608400D02*
X148988000Y-101608400D01*
%TO.N,Net-(J4-Pad1)*%
X137445800Y-92736800D02*
X138077094Y-92736800D01*
D27*
X156230000Y-91567000D02*
X156230000Y-87778000D01*
X156230000Y-91567000D02*
X163230000Y-91567000D01*
D26*
X138077094Y-92736800D02*
X138557000Y-92256894D01*
X138557000Y-92256894D02*
X138557000Y-91948000D01*
D27*
X149230000Y-87778000D02*
X149230000Y-91567000D01*
X149230000Y-91567000D02*
X156230000Y-91567000D01*
D26*
X138557000Y-91948000D02*
X138938000Y-91567000D01*
X138938000Y-91567000D02*
X142519400Y-91567000D01*
D27*
X149230000Y-91567000D02*
X142519400Y-91567000D01*
X163230000Y-91567000D02*
X163230000Y-87778000D01*
%TO.N,Net-(J4-Pad2)*%
X165770000Y-90332000D02*
X165770000Y-87778000D01*
X151765000Y-90367500D02*
X151765000Y-87783000D01*
X165811200Y-90373200D02*
X165770000Y-90332000D01*
X158775400Y-90367500D02*
X158775400Y-87783400D01*
D26*
X131297707Y-92736800D02*
X131895800Y-92736800D01*
X130432707Y-91871800D02*
X131297707Y-92736800D01*
D27*
X158775400Y-87783400D02*
X158770000Y-87778000D01*
D26*
X128778000Y-91871800D02*
X130432707Y-91871800D01*
%TO.N,/PHASE*%
X146565800Y-95597800D02*
X138447600Y-95597800D01*
D27*
X147523200Y-94640400D02*
X151841200Y-94640400D01*
X151841200Y-94640400D02*
X152664200Y-95463400D01*
X162712725Y-95463400D02*
X162727825Y-95448300D01*
D26*
X138447600Y-95597800D02*
X138186600Y-95336800D01*
X162510000Y-102640600D02*
X162510000Y-106410000D01*
D27*
X152664200Y-95463400D02*
X162712725Y-95463400D01*
D26*
X138186600Y-95336800D02*
X137445800Y-95336800D01*
X147091400Y-95072200D02*
X146565800Y-95597800D01*
X162510000Y-106410000D02*
X163850000Y-107750000D01*
D27*
X147091400Y-95072200D02*
X147523200Y-94640400D01*
%TO.N,/nFault*%
X137684000Y-99838000D02*
X137684000Y-98552000D01*
D26*
X157480000Y-102666800D02*
X157480000Y-106460000D01*
D27*
X144653000Y-97536000D02*
X141351000Y-100838000D01*
X137414000Y-96693600D02*
X137445800Y-96661800D01*
X148183600Y-96926400D02*
X147574000Y-97536000D01*
X157396800Y-97764600D02*
X152425400Y-97764600D01*
X151587200Y-96926400D02*
X148183600Y-96926400D01*
X138684000Y-100838000D02*
X137684000Y-99838000D01*
X147574000Y-97536000D02*
X144653000Y-97536000D01*
X137684000Y-98552000D02*
X137684000Y-97552000D01*
X137414000Y-97282000D02*
X137414000Y-96693600D01*
X137684000Y-97552000D02*
X137414000Y-97282000D01*
X141351000Y-100838000D02*
X138684000Y-100838000D01*
X152425400Y-97764600D02*
X151587200Y-96926400D01*
D26*
X157480000Y-106460000D02*
X158770000Y-107750000D01*
D27*
X157480000Y-97847800D02*
X157396800Y-97764600D01*
D26*
%TO.N,/ENABLE*%
X138954000Y-92567000D02*
X139852400Y-92567000D01*
X138134200Y-93386800D02*
X138954000Y-92567000D01*
X154940000Y-102666800D02*
X154940000Y-106460000D01*
D27*
X154829000Y-92766500D02*
X154629500Y-92567000D01*
D26*
X154940000Y-106460000D02*
X156230000Y-107750000D01*
X137445800Y-93386800D02*
X138134200Y-93386800D01*
D27*
X154629500Y-92567000D02*
X139852400Y-92567000D01*
D26*
%TO.N,Net-(R1-Pad1)*%
X138753400Y-96647800D02*
X139242800Y-96647800D01*
X138092400Y-95986800D02*
X138753400Y-96647800D01*
X137445800Y-95986800D02*
X138092400Y-95986800D01*
D27*
%TO.N,Net-(R2-Pad1)*%
X131870800Y-96661800D02*
X131895800Y-96661800D01*
X131826000Y-96706600D02*
X131870800Y-96661800D01*
X131826000Y-98314000D02*
X131826000Y-96706600D01*
D26*
%TO.N,Net-(R4-Pad1)*%
X140226000Y-93599000D02*
X141274800Y-94647800D01*
X138643072Y-93599000D02*
X140226000Y-93599000D01*
X138205272Y-94036800D02*
X138643072Y-93599000D01*
X137445800Y-94036800D02*
X138205272Y-94036800D01*
D27*
%TO.N,Net-(R6-Pad1)*%
X137420800Y-92061800D02*
X137445800Y-92061800D01*
X137414000Y-90662000D02*
X137414000Y-92055000D01*
D26*
X137414000Y-92055000D02*
X137445800Y-92086800D01*
D27*
X137414000Y-92055000D02*
X137420800Y-92061800D01*
%TO.N,Net-(R6-Pad2)*%
X135604000Y-88138000D02*
X136890000Y-88138000D01*
X136890000Y-88138000D02*
X137414000Y-88662000D01*
D26*
%TO.N,Net-(U2-Pad14)*%
X131895800Y-95336800D02*
X131881000Y-95351600D01*
X131881000Y-95351600D02*
X131013200Y-95351600D01*
X130352800Y-96012000D02*
X126648300Y-96012000D01*
X126648300Y-96012000D02*
X125984000Y-95347700D01*
X131013200Y-95351600D02*
X130352800Y-96012000D01*
%TD*%
M02*
