%TF.GenerationSoftware,KiCad,Pcbnew,6.0.10-86aedd382b~118~ubuntu20.04.1*%
%TF.CreationDate,2023-08-02T00:09:12+02:00*%
%TF.ProjectId,power_board,706f7765-725f-4626-9f61-72642e6b6963,rev?*%
%TF.SameCoordinates,Original*%
%TF.FileFunction,Legend,Bot*%
%TF.FilePolarity,Positive*%
%FSLAX46Y46*%
G04 Gerber Fmt 4.6, Leading zero omitted, Abs format (unit mm)*
G04 Created by KiCad (PCBNEW 6.0.10-86aedd382b~118~ubuntu20.04.1) date 2023-08-02 00:09:12*
%MOMM*%
%LPD*%
G01*
G04 APERTURE LIST*
%ADD10C,0.150000*%
%ADD11C,0.120000*%
G04 APERTURE END LIST*
D10*
%TO.C,J7*%
X159591333Y-102322380D02*
X159591333Y-103036666D01*
X159638952Y-103179523D01*
X159734190Y-103274761D01*
X159877047Y-103322380D01*
X159972285Y-103322380D01*
X159210380Y-102322380D02*
X158543714Y-102322380D01*
X158972285Y-103322380D01*
%TO.C,C4*%
X172124666Y-99671142D02*
X172172285Y-99718761D01*
X172315142Y-99766380D01*
X172410380Y-99766380D01*
X172553238Y-99718761D01*
X172648476Y-99623523D01*
X172696095Y-99528285D01*
X172743714Y-99337809D01*
X172743714Y-99194952D01*
X172696095Y-99004476D01*
X172648476Y-98909238D01*
X172553238Y-98814000D01*
X172410380Y-98766380D01*
X172315142Y-98766380D01*
X172172285Y-98814000D01*
X172124666Y-98861619D01*
X171267523Y-99099714D02*
X171267523Y-99766380D01*
X171505619Y-98718761D02*
X171743714Y-99433047D01*
X171124666Y-99433047D01*
%TO.C,C3*%
X167298666Y-99573142D02*
X167346285Y-99620761D01*
X167489142Y-99668380D01*
X167584380Y-99668380D01*
X167727238Y-99620761D01*
X167822476Y-99525523D01*
X167870095Y-99430285D01*
X167917714Y-99239809D01*
X167917714Y-99096952D01*
X167870095Y-98906476D01*
X167822476Y-98811238D01*
X167727238Y-98716000D01*
X167584380Y-98668380D01*
X167489142Y-98668380D01*
X167346285Y-98716000D01*
X167298666Y-98763619D01*
X166965333Y-98668380D02*
X166346285Y-98668380D01*
X166679619Y-99049333D01*
X166536761Y-99049333D01*
X166441523Y-99096952D01*
X166393904Y-99144571D01*
X166346285Y-99239809D01*
X166346285Y-99477904D01*
X166393904Y-99573142D01*
X166441523Y-99620761D01*
X166536761Y-99668380D01*
X166822476Y-99668380D01*
X166917714Y-99620761D01*
X166965333Y-99573142D01*
%TO.C,J2*%
X171783333Y-102322380D02*
X171783333Y-103036666D01*
X171830952Y-103179523D01*
X171926190Y-103274761D01*
X172069047Y-103322380D01*
X172164285Y-103322380D01*
X171354761Y-102417619D02*
X171307142Y-102370000D01*
X171211904Y-102322380D01*
X170973809Y-102322380D01*
X170878571Y-102370000D01*
X170830952Y-102417619D01*
X170783333Y-102512857D01*
X170783333Y-102608095D01*
X170830952Y-102750952D01*
X171402380Y-103322380D01*
X170783333Y-103322380D01*
D11*
%TO.C,J7*%
X162580000Y-103880000D02*
X152360000Y-103880000D01*
X165180000Y-109080000D02*
X165180000Y-106480000D01*
X162580000Y-106480000D02*
X162580000Y-103880000D01*
X165180000Y-103880000D02*
X163850000Y-103880000D01*
X165180000Y-105210000D02*
X165180000Y-103880000D01*
X165180000Y-109080000D02*
X152360000Y-109080000D01*
X165180000Y-106480000D02*
X162580000Y-106480000D01*
X152360000Y-109080000D02*
X152360000Y-103880000D01*
%TO.C,C4*%
X172375552Y-98321800D02*
X171853048Y-98321800D01*
X172375552Y-96851800D02*
X171853048Y-96851800D01*
%TO.C,C3*%
X166870748Y-96801000D02*
X167393252Y-96801000D01*
X166870748Y-98271000D02*
X167393252Y-98271000D01*
%TO.C,J2*%
X175280000Y-103880000D02*
X165060000Y-103880000D01*
X177880000Y-106480000D02*
X175280000Y-106480000D01*
X177880000Y-109080000D02*
X165060000Y-109080000D01*
X175280000Y-106480000D02*
X175280000Y-103880000D01*
X177880000Y-103880000D02*
X176550000Y-103880000D01*
X177880000Y-109080000D02*
X177880000Y-106480000D01*
X165060000Y-109080000D02*
X165060000Y-103880000D01*
X177880000Y-105210000D02*
X177880000Y-103880000D01*
%TD*%
M02*
