%TF.GenerationSoftware,KiCad,Pcbnew,6.0.10-86aedd382b~118~ubuntu20.04.1*%
%TF.CreationDate,2023-08-02T00:09:12+02:00*%
%TF.ProjectId,power_board,706f7765-725f-4626-9f61-72642e6b6963,rev?*%
%TF.SameCoordinates,Original*%
%TF.FileFunction,Legend,Top*%
%TF.FilePolarity,Positive*%
%FSLAX46Y46*%
G04 Gerber Fmt 4.6, Leading zero omitted, Abs format (unit mm)*
G04 Created by KiCad (PCBNEW 6.0.10-86aedd382b~118~ubuntu20.04.1) date 2023-08-02 00:09:12*
%MOMM*%
%LPD*%
G01*
G04 APERTURE LIST*
%ADD10C,0.300000*%
%ADD11C,0.150000*%
%ADD12C,0.120000*%
G04 APERTURE END LIST*
D10*
X176657142Y-86118000D02*
X176514285Y-86046571D01*
X176300000Y-86046571D01*
X176085714Y-86118000D01*
X175942857Y-86260857D01*
X175871428Y-86403714D01*
X175800000Y-86689428D01*
X175800000Y-86903714D01*
X175871428Y-87189428D01*
X175942857Y-87332285D01*
X176085714Y-87475142D01*
X176300000Y-87546571D01*
X176442857Y-87546571D01*
X176657142Y-87475142D01*
X176728571Y-87403714D01*
X176728571Y-86903714D01*
X176442857Y-86903714D01*
X177371428Y-87546571D02*
X177371428Y-86046571D01*
X178228571Y-87546571D01*
X178228571Y-86046571D01*
X178942857Y-87546571D02*
X178942857Y-86046571D01*
X179300000Y-86046571D01*
X179514285Y-86118000D01*
X179657142Y-86260857D01*
X179728571Y-86403714D01*
X179800000Y-86689428D01*
X179800000Y-86903714D01*
X179728571Y-87189428D01*
X179657142Y-87332285D01*
X179514285Y-87475142D01*
X179300000Y-87546571D01*
X178942857Y-87546571D01*
X133540857Y-105754214D02*
X133469428Y-105825642D01*
X133255142Y-105897071D01*
X133112285Y-105897071D01*
X132898000Y-105825642D01*
X132755142Y-105682785D01*
X132683714Y-105539928D01*
X132612285Y-105254214D01*
X132612285Y-105039928D01*
X132683714Y-104754214D01*
X132755142Y-104611357D01*
X132898000Y-104468500D01*
X133112285Y-104397071D01*
X133255142Y-104397071D01*
X133469428Y-104468500D01*
X133540857Y-104539928D01*
X134398000Y-105897071D02*
X134255142Y-105825642D01*
X134183714Y-105754214D01*
X134112285Y-105611357D01*
X134112285Y-105182785D01*
X134183714Y-105039928D01*
X134255142Y-104968500D01*
X134398000Y-104897071D01*
X134612285Y-104897071D01*
X134755142Y-104968500D01*
X134826571Y-105039928D01*
X134898000Y-105182785D01*
X134898000Y-105611357D01*
X134826571Y-105754214D01*
X134755142Y-105825642D01*
X134612285Y-105897071D01*
X134398000Y-105897071D01*
X135540857Y-104897071D02*
X135540857Y-105897071D01*
X135540857Y-105039928D02*
X135612285Y-104968500D01*
X135755142Y-104897071D01*
X135969428Y-104897071D01*
X136112285Y-104968500D01*
X136183714Y-105111357D01*
X136183714Y-105897071D01*
X136683714Y-104897071D02*
X137255142Y-104897071D01*
X136898000Y-104397071D02*
X136898000Y-105682785D01*
X136969428Y-105825642D01*
X137112285Y-105897071D01*
X137255142Y-105897071D01*
X137755142Y-105897071D02*
X137755142Y-104897071D01*
X137755142Y-105182785D02*
X137826571Y-105039928D01*
X137898000Y-104968500D01*
X138040857Y-104897071D01*
X138183714Y-104897071D01*
X138898000Y-105897071D02*
X138755142Y-105825642D01*
X138683714Y-105754214D01*
X138612285Y-105611357D01*
X138612285Y-105182785D01*
X138683714Y-105039928D01*
X138755142Y-104968500D01*
X138898000Y-104897071D01*
X139112285Y-104897071D01*
X139255142Y-104968500D01*
X139326571Y-105039928D01*
X139398000Y-105182785D01*
X139398000Y-105611357D01*
X139326571Y-105754214D01*
X139255142Y-105825642D01*
X139112285Y-105897071D01*
X138898000Y-105897071D01*
X140255142Y-105897071D02*
X140112285Y-105825642D01*
X140040857Y-105682785D01*
X140040857Y-104397071D01*
X133612285Y-108312071D02*
X133612285Y-106812071D01*
X134183714Y-106812071D01*
X134326571Y-106883500D01*
X134398000Y-106954928D01*
X134469428Y-107097785D01*
X134469428Y-107312071D01*
X134398000Y-107454928D01*
X134326571Y-107526357D01*
X134183714Y-107597785D01*
X133612285Y-107597785D01*
X135755142Y-108312071D02*
X135755142Y-107526357D01*
X135683714Y-107383500D01*
X135540857Y-107312071D01*
X135255142Y-107312071D01*
X135112285Y-107383500D01*
X135755142Y-108240642D02*
X135612285Y-108312071D01*
X135255142Y-108312071D01*
X135112285Y-108240642D01*
X135040857Y-108097785D01*
X135040857Y-107954928D01*
X135112285Y-107812071D01*
X135255142Y-107740642D01*
X135612285Y-107740642D01*
X135755142Y-107669214D01*
X136469428Y-107312071D02*
X136469428Y-108312071D01*
X136469428Y-107454928D02*
X136540857Y-107383500D01*
X136683714Y-107312071D01*
X136898000Y-107312071D01*
X137040857Y-107383500D01*
X137112285Y-107526357D01*
X137112285Y-108312071D01*
X138398000Y-108240642D02*
X138255142Y-108312071D01*
X137969428Y-108312071D01*
X137826571Y-108240642D01*
X137755142Y-108097785D01*
X137755142Y-107526357D01*
X137826571Y-107383500D01*
X137969428Y-107312071D01*
X138255142Y-107312071D01*
X138398000Y-107383500D01*
X138469428Y-107526357D01*
X138469428Y-107669214D01*
X137755142Y-107812071D01*
X139326571Y-108312071D02*
X139183714Y-108240642D01*
X139112285Y-108097785D01*
X139112285Y-106812071D01*
X145960028Y-82849257D02*
X144817171Y-82849257D01*
X145388600Y-82277828D02*
X145388600Y-83420685D01*
X144102885Y-82849257D02*
X142960028Y-82849257D01*
X142174314Y-82349257D02*
X142174314Y-82277828D01*
X142245742Y-82134971D01*
X142317171Y-82063542D01*
X140460028Y-82349257D02*
X140245742Y-82277828D01*
X139888600Y-82277828D01*
X139745742Y-82349257D01*
X139674314Y-82420685D01*
X139602885Y-82563542D01*
X139602885Y-82706400D01*
X139674314Y-82849257D01*
X139745742Y-82920685D01*
X139888600Y-82992114D01*
X140174314Y-83063542D01*
X140317171Y-83134971D01*
X140388600Y-83206400D01*
X140460028Y-83349257D01*
X140460028Y-83492114D01*
X140388600Y-83634971D01*
X140317171Y-83706400D01*
X140174314Y-83777828D01*
X139817171Y-83777828D01*
X139602885Y-83706400D01*
X138174314Y-82277828D02*
X139031457Y-82277828D01*
X138602885Y-82277828D02*
X138602885Y-83777828D01*
X138745742Y-83563542D01*
X138888600Y-83420685D01*
X139031457Y-83349257D01*
X137460028Y-82349257D02*
X137460028Y-82277828D01*
X137531457Y-82134971D01*
X137602885Y-82063542D01*
X135745742Y-82349257D02*
X135531457Y-82277828D01*
X135174314Y-82277828D01*
X135031457Y-82349257D01*
X134960028Y-82420685D01*
X134888600Y-82563542D01*
X134888600Y-82706400D01*
X134960028Y-82849257D01*
X135031457Y-82920685D01*
X135174314Y-82992114D01*
X135460028Y-83063542D01*
X135602885Y-83134971D01*
X135674314Y-83206400D01*
X135745742Y-83349257D01*
X135745742Y-83492114D01*
X135674314Y-83634971D01*
X135602885Y-83706400D01*
X135460028Y-83777828D01*
X135102885Y-83777828D01*
X134888600Y-83706400D01*
X134317171Y-83634971D02*
X134245742Y-83706400D01*
X134102885Y-83777828D01*
X133745742Y-83777828D01*
X133602885Y-83706400D01*
X133531457Y-83634971D01*
X133460028Y-83492114D01*
X133460028Y-83349257D01*
X133531457Y-83134971D01*
X134388600Y-82277828D01*
X133460028Y-82277828D01*
X132745742Y-82349257D02*
X132745742Y-82277828D01*
X132817171Y-82134971D01*
X132888600Y-82063542D01*
X131031457Y-82349257D02*
X130817171Y-82277828D01*
X130460028Y-82277828D01*
X130317171Y-82349257D01*
X130245742Y-82420685D01*
X130174314Y-82563542D01*
X130174314Y-82706400D01*
X130245742Y-82849257D01*
X130317171Y-82920685D01*
X130460028Y-82992114D01*
X130745742Y-83063542D01*
X130888600Y-83134971D01*
X130960028Y-83206400D01*
X131031457Y-83349257D01*
X131031457Y-83492114D01*
X130960028Y-83634971D01*
X130888600Y-83706400D01*
X130745742Y-83777828D01*
X130388600Y-83777828D01*
X130174314Y-83706400D01*
X129674314Y-83777828D02*
X128745742Y-83777828D01*
X129245742Y-83206400D01*
X129031457Y-83206400D01*
X128888600Y-83134971D01*
X128817171Y-83063542D01*
X128745742Y-82920685D01*
X128745742Y-82563542D01*
X128817171Y-82420685D01*
X128888600Y-82349257D01*
X129031457Y-82277828D01*
X129460028Y-82277828D01*
X129602885Y-82349257D01*
X129674314Y-82420685D01*
D11*
%TO.C,C2*%
X123658333Y-94928594D02*
X123610714Y-94976213D01*
X123467857Y-95023832D01*
X123372619Y-95023832D01*
X123229761Y-94976213D01*
X123134523Y-94880975D01*
X123086904Y-94785737D01*
X123039285Y-94595261D01*
X123039285Y-94452404D01*
X123086904Y-94261928D01*
X123134523Y-94166690D01*
X123229761Y-94071452D01*
X123372619Y-94023832D01*
X123467857Y-94023832D01*
X123610714Y-94071452D01*
X123658333Y-94119071D01*
X124039285Y-94119071D02*
X124086904Y-94071452D01*
X124182142Y-94023832D01*
X124420238Y-94023832D01*
X124515476Y-94071452D01*
X124563095Y-94119071D01*
X124610714Y-94214309D01*
X124610714Y-94309547D01*
X124563095Y-94452404D01*
X123991666Y-95023832D01*
X124610714Y-95023832D01*
%TO.C,R5*%
X138517333Y-100782380D02*
X138184000Y-100306190D01*
X137945904Y-100782380D02*
X137945904Y-99782380D01*
X138326857Y-99782380D01*
X138422095Y-99830000D01*
X138469714Y-99877619D01*
X138517333Y-99972857D01*
X138517333Y-100115714D01*
X138469714Y-100210952D01*
X138422095Y-100258571D01*
X138326857Y-100306190D01*
X137945904Y-100306190D01*
X139422095Y-99782380D02*
X138945904Y-99782380D01*
X138898285Y-100258571D01*
X138945904Y-100210952D01*
X139041142Y-100163333D01*
X139279238Y-100163333D01*
X139374476Y-100210952D01*
X139422095Y-100258571D01*
X139469714Y-100353809D01*
X139469714Y-100591904D01*
X139422095Y-100687142D01*
X139374476Y-100734761D01*
X139279238Y-100782380D01*
X139041142Y-100782380D01*
X138945904Y-100734761D01*
X138898285Y-100687142D01*
%TO.C,J5*%
X153971666Y-87082380D02*
X153971666Y-87796666D01*
X153924047Y-87939523D01*
X153828809Y-88034761D01*
X153685952Y-88082380D01*
X153590714Y-88082380D01*
X154924047Y-87082380D02*
X154447857Y-87082380D01*
X154400238Y-87558571D01*
X154447857Y-87510952D01*
X154543095Y-87463333D01*
X154781190Y-87463333D01*
X154876428Y-87510952D01*
X154924047Y-87558571D01*
X154971666Y-87653809D01*
X154971666Y-87891904D01*
X154924047Y-87987142D01*
X154876428Y-88034761D01*
X154781190Y-88082380D01*
X154543095Y-88082380D01*
X154447857Y-88034761D01*
X154400238Y-87987142D01*
%TO.C,R1*%
X143327380Y-95814466D02*
X142851190Y-96147800D01*
X143327380Y-96385895D02*
X142327380Y-96385895D01*
X142327380Y-96004942D01*
X142375000Y-95909704D01*
X142422619Y-95862085D01*
X142517857Y-95814466D01*
X142660714Y-95814466D01*
X142755952Y-95862085D01*
X142803571Y-95909704D01*
X142851190Y-96004942D01*
X142851190Y-96385895D01*
X143327380Y-94862085D02*
X143327380Y-95433514D01*
X143327380Y-95147800D02*
X142327380Y-95147800D01*
X142470238Y-95243038D01*
X142565476Y-95338276D01*
X142613095Y-95433514D01*
%TO.C,C8*%
X125563333Y-103862142D02*
X125515714Y-103909761D01*
X125372857Y-103957380D01*
X125277619Y-103957380D01*
X125134761Y-103909761D01*
X125039523Y-103814523D01*
X124991904Y-103719285D01*
X124944285Y-103528809D01*
X124944285Y-103385952D01*
X124991904Y-103195476D01*
X125039523Y-103100238D01*
X125134761Y-103005000D01*
X125277619Y-102957380D01*
X125372857Y-102957380D01*
X125515714Y-103005000D01*
X125563333Y-103052619D01*
X126134761Y-103385952D02*
X126039523Y-103338333D01*
X125991904Y-103290714D01*
X125944285Y-103195476D01*
X125944285Y-103147857D01*
X125991904Y-103052619D01*
X126039523Y-103005000D01*
X126134761Y-102957380D01*
X126325238Y-102957380D01*
X126420476Y-103005000D01*
X126468095Y-103052619D01*
X126515714Y-103147857D01*
X126515714Y-103195476D01*
X126468095Y-103290714D01*
X126420476Y-103338333D01*
X126325238Y-103385952D01*
X126134761Y-103385952D01*
X126039523Y-103433571D01*
X125991904Y-103481190D01*
X125944285Y-103576428D01*
X125944285Y-103766904D01*
X125991904Y-103862142D01*
X126039523Y-103909761D01*
X126134761Y-103957380D01*
X126325238Y-103957380D01*
X126420476Y-103909761D01*
X126468095Y-103862142D01*
X126515714Y-103766904D01*
X126515714Y-103576428D01*
X126468095Y-103481190D01*
X126420476Y-103433571D01*
X126325238Y-103385952D01*
%TO.C,R4*%
X144597380Y-95814466D02*
X144121190Y-96147800D01*
X144597380Y-96385895D02*
X143597380Y-96385895D01*
X143597380Y-96004942D01*
X143645000Y-95909704D01*
X143692619Y-95862085D01*
X143787857Y-95814466D01*
X143930714Y-95814466D01*
X144025952Y-95862085D01*
X144073571Y-95909704D01*
X144121190Y-96004942D01*
X144121190Y-96385895D01*
X143930714Y-94957323D02*
X144597380Y-94957323D01*
X143549761Y-95195419D02*
X144264047Y-95433514D01*
X144264047Y-94814466D01*
%TO.C,J4*%
X160956666Y-87082380D02*
X160956666Y-87796666D01*
X160909047Y-87939523D01*
X160813809Y-88034761D01*
X160670952Y-88082380D01*
X160575714Y-88082380D01*
X161861428Y-87415714D02*
X161861428Y-88082380D01*
X161623333Y-87034761D02*
X161385238Y-87749047D01*
X162004285Y-87749047D01*
%TO.C,J1*%
X167941666Y-87082380D02*
X167941666Y-87796666D01*
X167894047Y-87939523D01*
X167798809Y-88034761D01*
X167655952Y-88082380D01*
X167560714Y-88082380D01*
X168941666Y-88082380D02*
X168370238Y-88082380D01*
X168655952Y-88082380D02*
X168655952Y-87082380D01*
X168560714Y-87225238D01*
X168465476Y-87320476D01*
X168370238Y-87368095D01*
%TO.C,R2*%
X131913333Y-102052380D02*
X131580000Y-101576190D01*
X131341904Y-102052380D02*
X131341904Y-101052380D01*
X131722857Y-101052380D01*
X131818095Y-101100000D01*
X131865714Y-101147619D01*
X131913333Y-101242857D01*
X131913333Y-101385714D01*
X131865714Y-101480952D01*
X131818095Y-101528571D01*
X131722857Y-101576190D01*
X131341904Y-101576190D01*
X132294285Y-101147619D02*
X132341904Y-101100000D01*
X132437142Y-101052380D01*
X132675238Y-101052380D01*
X132770476Y-101100000D01*
X132818095Y-101147619D01*
X132865714Y-101242857D01*
X132865714Y-101338095D01*
X132818095Y-101480952D01*
X132246666Y-102052380D01*
X132865714Y-102052380D01*
%TO.C,C5*%
X125563333Y-98147142D02*
X125515714Y-98194761D01*
X125372857Y-98242380D01*
X125277619Y-98242380D01*
X125134761Y-98194761D01*
X125039523Y-98099523D01*
X124991904Y-98004285D01*
X124944285Y-97813809D01*
X124944285Y-97670952D01*
X124991904Y-97480476D01*
X125039523Y-97385238D01*
X125134761Y-97290000D01*
X125277619Y-97242380D01*
X125372857Y-97242380D01*
X125515714Y-97290000D01*
X125563333Y-97337619D01*
X126468095Y-97242380D02*
X125991904Y-97242380D01*
X125944285Y-97718571D01*
X125991904Y-97670952D01*
X126087142Y-97623333D01*
X126325238Y-97623333D01*
X126420476Y-97670952D01*
X126468095Y-97718571D01*
X126515714Y-97813809D01*
X126515714Y-98051904D01*
X126468095Y-98147142D01*
X126420476Y-98194761D01*
X126325238Y-98242380D01*
X126087142Y-98242380D01*
X125991904Y-98194761D01*
X125944285Y-98147142D01*
%TO.C,C7*%
X125563333Y-101957142D02*
X125515714Y-102004761D01*
X125372857Y-102052380D01*
X125277619Y-102052380D01*
X125134761Y-102004761D01*
X125039523Y-101909523D01*
X124991904Y-101814285D01*
X124944285Y-101623809D01*
X124944285Y-101480952D01*
X124991904Y-101290476D01*
X125039523Y-101195238D01*
X125134761Y-101100000D01*
X125277619Y-101052380D01*
X125372857Y-101052380D01*
X125515714Y-101100000D01*
X125563333Y-101147619D01*
X125896666Y-101052380D02*
X126563333Y-101052380D01*
X126134761Y-102052380D01*
%TO.C,U2*%
X134112095Y-99782380D02*
X134112095Y-100591904D01*
X134159714Y-100687142D01*
X134207333Y-100734761D01*
X134302571Y-100782380D01*
X134493047Y-100782380D01*
X134588285Y-100734761D01*
X134635904Y-100687142D01*
X134683523Y-100591904D01*
X134683523Y-99782380D01*
X135112095Y-99877619D02*
X135159714Y-99830000D01*
X135254952Y-99782380D01*
X135493047Y-99782380D01*
X135588285Y-99830000D01*
X135635904Y-99877619D01*
X135683523Y-99972857D01*
X135683523Y-100068095D01*
X135635904Y-100210952D01*
X135064476Y-100782380D01*
X135683523Y-100782380D01*
%TO.C,U1*%
X177292095Y-96480380D02*
X177292095Y-97289904D01*
X177339714Y-97385142D01*
X177387333Y-97432761D01*
X177482571Y-97480380D01*
X177673047Y-97480380D01*
X177768285Y-97432761D01*
X177815904Y-97385142D01*
X177863523Y-97289904D01*
X177863523Y-96480380D01*
X178863523Y-97480380D02*
X178292095Y-97480380D01*
X178577809Y-97480380D02*
X178577809Y-96480380D01*
X178482571Y-96623238D01*
X178387333Y-96718476D01*
X178292095Y-96766095D01*
%TO.C,R3*%
X142057380Y-91606666D02*
X141581190Y-91940000D01*
X142057380Y-92178095D02*
X141057380Y-92178095D01*
X141057380Y-91797142D01*
X141105000Y-91701904D01*
X141152619Y-91654285D01*
X141247857Y-91606666D01*
X141390714Y-91606666D01*
X141485952Y-91654285D01*
X141533571Y-91701904D01*
X141581190Y-91797142D01*
X141581190Y-92178095D01*
X141057380Y-91273333D02*
X141057380Y-90654285D01*
X141438333Y-90987619D01*
X141438333Y-90844761D01*
X141485952Y-90749523D01*
X141533571Y-90701904D01*
X141628809Y-90654285D01*
X141866904Y-90654285D01*
X141962142Y-90701904D01*
X142009761Y-90749523D01*
X142057380Y-90844761D01*
X142057380Y-91130476D01*
X142009761Y-91225714D01*
X141962142Y-91273333D01*
%TO.C,C1*%
X128970833Y-96242142D02*
X128923214Y-96289761D01*
X128780357Y-96337380D01*
X128685119Y-96337380D01*
X128542261Y-96289761D01*
X128447023Y-96194523D01*
X128399404Y-96099285D01*
X128351785Y-95908809D01*
X128351785Y-95765952D01*
X128399404Y-95575476D01*
X128447023Y-95480238D01*
X128542261Y-95385000D01*
X128685119Y-95337380D01*
X128780357Y-95337380D01*
X128923214Y-95385000D01*
X128970833Y-95432619D01*
X129923214Y-96337380D02*
X129351785Y-96337380D01*
X129637500Y-96337380D02*
X129637500Y-95337380D01*
X129542261Y-95480238D01*
X129447023Y-95575476D01*
X129351785Y-95623095D01*
%TO.C,J3*%
X145716666Y-102322380D02*
X145716666Y-103036666D01*
X145669047Y-103179523D01*
X145573809Y-103274761D01*
X145430952Y-103322380D01*
X145335714Y-103322380D01*
X146097619Y-102322380D02*
X146716666Y-102322380D01*
X146383333Y-102703333D01*
X146526190Y-102703333D01*
X146621428Y-102750952D01*
X146669047Y-102798571D01*
X146716666Y-102893809D01*
X146716666Y-103131904D01*
X146669047Y-103227142D01*
X146621428Y-103274761D01*
X146526190Y-103322380D01*
X146240476Y-103322380D01*
X146145238Y-103274761D01*
X146097619Y-103227142D01*
%TO.C,C6*%
X125563333Y-100052142D02*
X125515714Y-100099761D01*
X125372857Y-100147380D01*
X125277619Y-100147380D01*
X125134761Y-100099761D01*
X125039523Y-100004523D01*
X124991904Y-99909285D01*
X124944285Y-99718809D01*
X124944285Y-99575952D01*
X124991904Y-99385476D01*
X125039523Y-99290238D01*
X125134761Y-99195000D01*
X125277619Y-99147380D01*
X125372857Y-99147380D01*
X125515714Y-99195000D01*
X125563333Y-99242619D01*
X126420476Y-99147380D02*
X126230000Y-99147380D01*
X126134761Y-99195000D01*
X126087142Y-99242619D01*
X125991904Y-99385476D01*
X125944285Y-99575952D01*
X125944285Y-99956904D01*
X125991904Y-100052142D01*
X126039523Y-100099761D01*
X126134761Y-100147380D01*
X126325238Y-100147380D01*
X126420476Y-100099761D01*
X126468095Y-100052142D01*
X126515714Y-99956904D01*
X126515714Y-99718809D01*
X126468095Y-99623571D01*
X126420476Y-99575952D01*
X126325238Y-99528333D01*
X126134761Y-99528333D01*
X126039523Y-99575952D01*
X125991904Y-99623571D01*
X125944285Y-99718809D01*
%TO.C,R6*%
X137628333Y-87447380D02*
X137295000Y-86971190D01*
X137056904Y-87447380D02*
X137056904Y-86447380D01*
X137437857Y-86447380D01*
X137533095Y-86495000D01*
X137580714Y-86542619D01*
X137628333Y-86637857D01*
X137628333Y-86780714D01*
X137580714Y-86875952D01*
X137533095Y-86923571D01*
X137437857Y-86971190D01*
X137056904Y-86971190D01*
X138485476Y-86447380D02*
X138295000Y-86447380D01*
X138199761Y-86495000D01*
X138152142Y-86542619D01*
X138056904Y-86685476D01*
X138009285Y-86875952D01*
X138009285Y-87256904D01*
X138056904Y-87352142D01*
X138104523Y-87399761D01*
X138199761Y-87447380D01*
X138390238Y-87447380D01*
X138485476Y-87399761D01*
X138533095Y-87352142D01*
X138580714Y-87256904D01*
X138580714Y-87018809D01*
X138533095Y-86923571D01*
X138485476Y-86875952D01*
X138390238Y-86828333D01*
X138199761Y-86828333D01*
X138104523Y-86875952D01*
X138056904Y-86923571D01*
X138009285Y-87018809D01*
%TO.C,R7*%
X134453333Y-86812380D02*
X134120000Y-86336190D01*
X133881904Y-86812380D02*
X133881904Y-85812380D01*
X134262857Y-85812380D01*
X134358095Y-85860000D01*
X134405714Y-85907619D01*
X134453333Y-86002857D01*
X134453333Y-86145714D01*
X134405714Y-86240952D01*
X134358095Y-86288571D01*
X134262857Y-86336190D01*
X133881904Y-86336190D01*
X134786666Y-85812380D02*
X135453333Y-85812380D01*
X135024761Y-86812380D01*
%TO.C,J6*%
X146986666Y-87082380D02*
X146986666Y-87796666D01*
X146939047Y-87939523D01*
X146843809Y-88034761D01*
X146700952Y-88082380D01*
X146605714Y-88082380D01*
X147891428Y-87082380D02*
X147700952Y-87082380D01*
X147605714Y-87130000D01*
X147558095Y-87177619D01*
X147462857Y-87320476D01*
X147415238Y-87510952D01*
X147415238Y-87891904D01*
X147462857Y-87987142D01*
X147510476Y-88034761D01*
X147605714Y-88082380D01*
X147796190Y-88082380D01*
X147891428Y-88034761D01*
X147939047Y-87987142D01*
X147986666Y-87891904D01*
X147986666Y-87653809D01*
X147939047Y-87558571D01*
X147891428Y-87510952D01*
X147796190Y-87463333D01*
X147605714Y-87463333D01*
X147510476Y-87510952D01*
X147462857Y-87558571D01*
X147415238Y-87653809D01*
D12*
%TO.C,C2*%
X125249000Y-94048948D02*
X125249000Y-94571452D01*
X126719000Y-94048948D02*
X126719000Y-94571452D01*
%TO.C,R5*%
X138456936Y-99287000D02*
X138911064Y-99287000D01*
X138456936Y-97817000D02*
X138911064Y-97817000D01*
%TO.C,R1*%
X139977800Y-95874864D02*
X139977800Y-95420736D01*
X138507800Y-95874864D02*
X138507800Y-95420736D01*
%TO.C,C8*%
X128516748Y-104367000D02*
X129039252Y-104367000D01*
X128516748Y-102897000D02*
X129039252Y-102897000D01*
%TO.C,R4*%
X142009800Y-95420736D02*
X142009800Y-95874864D01*
X140539800Y-95420736D02*
X140539800Y-95874864D01*
%TO.C,R2*%
X132561000Y-99086936D02*
X132561000Y-99541064D01*
X131091000Y-99086936D02*
X131091000Y-99541064D01*
%TO.C,C5*%
X128538248Y-96801000D02*
X129060752Y-96801000D01*
X128538248Y-98271000D02*
X129060752Y-98271000D01*
%TO.C,C7*%
X128516748Y-100865000D02*
X129039252Y-100865000D01*
X128516748Y-102335000D02*
X129039252Y-102335000D01*
D11*
%TO.C,U2*%
X138045800Y-97186800D02*
X132420800Y-97186800D01*
X136920800Y-91636800D02*
X132420800Y-91636800D01*
D12*
%TO.C,U1*%
X176762800Y-92391200D02*
X175522800Y-92391200D01*
X176522800Y-92631200D02*
X164801800Y-92631200D01*
X176762800Y-93631200D02*
X176762800Y-92391200D01*
X176522800Y-101251200D02*
X176522800Y-92631200D01*
X164801800Y-101251200D02*
X164801800Y-92631200D01*
X176522800Y-101251200D02*
X164801800Y-101251200D01*
%TO.C,R3*%
X140587400Y-91794064D02*
X140587400Y-91339936D01*
X139117400Y-91794064D02*
X139117400Y-91339936D01*
%TO.C,C1*%
X128876248Y-93600600D02*
X129398752Y-93600600D01*
X128876248Y-95070600D02*
X129398752Y-95070600D01*
%TO.C,J3*%
X151130000Y-106495000D02*
X151130000Y-109095000D01*
X148530000Y-103895000D02*
X140850000Y-103895000D01*
X140850000Y-103895000D02*
X140850000Y-109095000D01*
X149800000Y-103895000D02*
X151130000Y-103895000D01*
X151130000Y-109095000D02*
X140850000Y-109095000D01*
X148530000Y-106495000D02*
X151130000Y-106495000D01*
X148530000Y-103895000D02*
X148530000Y-106495000D01*
X151130000Y-103895000D02*
X151130000Y-105225000D01*
%TO.C,C6*%
X128538248Y-98795000D02*
X129060752Y-98795000D01*
X128538248Y-100265000D02*
X129060752Y-100265000D01*
%TO.C,J8*%
X175098400Y-88103400D02*
X175098400Y-90763400D01*
X178968400Y-88103400D02*
X180298400Y-88103400D01*
X177698400Y-88103400D02*
X175098400Y-88103400D01*
X177698400Y-90763400D02*
X175098400Y-90763400D01*
X177698400Y-88103400D02*
X177698400Y-90763400D01*
X180298400Y-88103400D02*
X180298400Y-89433400D01*
%TO.C,R6*%
X138149000Y-89889064D02*
X138149000Y-89434936D01*
X136679000Y-89889064D02*
X136679000Y-89434936D01*
%TO.C,R7*%
X134847064Y-89000000D02*
X134392936Y-89000000D01*
X134847064Y-87530000D02*
X134392936Y-87530000D01*
%TD*%
M02*
